<svg width="100" height="100" viewBox="0 0 100 100" fill="none" xmlns="http://www.w3.org/2000/svg">
<circle cx="50" cy="50" r="50" fill="#E17836"/>
<g filter="url(#filter0_d_1_4)">
<path d="M62.76 39.992C62.76 42.04 62.376 43.8107 61.608 45.304C60.8827 46.7973 59.8587 48.0133 58.536 48.952C57.2133 49.8907 55.6347 50.552 53.8 50.936V51.192C57.256 51.6187 59.8373 52.7707 61.544 54.648C63.2507 56.5253 64.104 58.9787 64.104 62.008C64.104 64.6533 63.5067 67.0213 62.312 69.112C61.16 71.16 59.3467 72.76 56.872 73.912C54.44 75.064 51.3253 75.64 47.528 75.64C45.2667 75.64 43.176 75.448 41.256 75.064C39.336 74.7227 37.48 74.0827 35.688 73.144V67.896C37.48 68.8347 39.4213 69.5813 41.512 70.136C43.6027 70.648 45.608 70.904 47.528 70.904C51.3253 70.904 54.056 70.1147 55.72 68.536C57.384 66.9147 58.216 64.696 58.216 61.88C58.216 59.96 57.7467 58.424 56.808 57.272C55.912 56.0773 54.568 55.2027 52.776 54.648C51.0267 54.0933 48.872 53.816 46.312 53.816H42.28V49.016H46.376C48.7653 49.016 50.7493 48.6533 52.328 47.928C53.9067 47.2027 55.08 46.2 55.848 44.92C56.6587 43.5973 57.064 42.0827 57.064 40.376C57.064 38.1573 56.3813 36.4507 55.016 35.256C53.6507 34.0187 51.7733 33.4 49.384 33.4C47.848 33.4 46.4613 33.5707 45.224 33.912C43.9867 34.2107 42.8347 34.6587 41.768 35.256C40.744 35.8107 39.72 36.472 38.696 37.24L35.944 33.4C36.968 32.5467 38.1413 31.7573 39.464 31.032C40.8293 30.3067 42.344 29.7307 44.008 29.304C45.672 28.8773 47.464 28.664 49.384 28.664C53.864 28.664 57.2133 29.7307 59.432 31.864C61.6507 33.9973 62.76 36.7067 62.76 39.992Z" fill="white"/>
</g>
<defs>
<filter id="filter0_d_1_4" x="25.688" y="22.664" width="48.416" height="66.976" filterUnits="userSpaceOnUse" color-interpolation-filters="sRGB">
<feFlood flood-opacity="0" result="BackgroundImageFix"/>
<feColorMatrix in="SourceAlpha" type="matrix" values="0 0 0 0 0 0 0 0 0 0 0 0 0 0 0 0 0 0 127 0" result="hardAlpha"/>
<feOffset dy="4"/>
<feGaussianBlur stdDeviation="5"/>
<feComposite in2="hardAlpha" operator="out"/>
<feColorMatrix type="matrix" values="0 0 0 0 0 0 0 0 0 0 0 0 0 0 0 0 0 0 0.25 0"/>
<feBlend mode="normal" in2="BackgroundImageFix" result="effect1_dropShadow_1_4"/>
<feBlend mode="normal" in="SourceGraphic" in2="effect1_dropShadow_1_4" result="shape"/>
</filter>
</defs>
</svg>
